<?xml version="1.0" encoding="UTF-8" standalone="no"?>
<!-- Created with Inkscape (http://www.inkscape.org/) -->

<svg
   xmlns:dc="http://purl.org/dc/elements/1.1/"
   xmlns:cc="http://creativecommons.org/ns#"
   xmlns:rdf="http://www.w3.org/1999/02/22-rdf-syntax-ns#"
   xmlns:svg="http://www.w3.org/2000/svg"
   xmlns="http://www.w3.org/2000/svg"
   xmlns:sodipodi="http://sodipodi.sourceforge.net/DTD/sodipodi-0.dtd"
   xmlns:inkscape="http://www.inkscape.org/namespaces/inkscape"
   sodipodi:docname="drawing.svg"
   inkscape:version="0.92.3 (2405546, 2018-03-11)"
   width="65.552521mm"
   height="63.760113mm"
   viewBox="0 0 65.552521 63.760113"
   version="1.1"
   id="svg8">
  <sodipodi:namedview
     fit-margin-bottom="0"
     fit-margin-right="0"
     fit-margin-left="0"
     fit-margin-top="0"
     borderlayer="true"
     id="base"
     pagecolor="#ffffff"
     bordercolor="#666666"
     borderopacity="1.0"
     inkscape:pageopacity="0.0"
     inkscape:pageshadow="2"
     inkscape:zoom="1.9461945"
     inkscape:cx="63.870896"
     inkscape:cy="117.26498"
     inkscape:document-units="mm"
     inkscape:current-layer="g908"
     showgrid="true"
     inkscape:window-width="1920"
     inkscape:window-height="1137"
     inkscape:window-x="-8"
     inkscape:window-y="-8"
     inkscape:window-maximized="1">
    <inkscape:grid
       id="grid894"
       units="mm"
       type="xygrid"
       empspacing="1"
       spacingy="2.54"
       spacingx="2.54"
       enabled="false"
       originx="0.033681511"
       originy="1.4305115e-006" />
  </sodipodi:namedview>
  <defs
     id="defs2" />
  <metadata
     id="metadata5">
    <rdf:RDF>
      <cc:Work
         rdf:about="">
        <dc:format>image/svg+xml</dc:format>
        <dc:type
           rdf:resource="http://purl.org/dc/dcmitype/StillImage" />
        <dc:title></dc:title>
      </cc:Work>
    </rdf:RDF>
  </metadata>
  <g
     id="g900"
     sodipodi:insensitive="true"
     inkscape:groupmode="layer"
     inkscape:label="[fixed] BG"
     transform="translate(0.03368151,-6.2398887)">
    <rect
       id="rect898"
       style="fill:#ffffff;fill-opacity:1;stroke:none;stroke-width:0.60901862"
       height="63.760113"
       width="65.518837"
       y="6.2398887"
       x="0" />
  </g>
  <g
     id="g902"
     inkscape:groupmode="layer"
     inkscape:label="Edge.Cuts"
     style="display:inline"
     transform="translate(0.03368151,-6.2398887)">
    <path
       id="path837"
       d="M3.7654122 63.014847L3.7830722 63.188793L3.8337202 63.350807L3.9138632 63.497418L4.0200032 63.625155L4.1486462 63.730548L4.2962972 63.810126L4.4594601 63.860418L4.6346402 63.877953L4.8098201 63.860418L4.9729832 63.810126L5.1206342 63.730548L5.2492772 63.625155L5.3554172 63.497418L5.4355602 63.350807L5.4862082 63.188793L5.5038682 63.014847L5.4862082 62.840901L5.4355602 62.678887L5.3554172 62.532276L5.2492772 62.404539L5.1206342 62.299146L4.9729832 62.219568L4.8098201 62.169276L4.6346402 62.151741L4.4594601 62.169276L4.2962972 62.219568L4.1486462 62.299146L4.0200032 62.404539L3.9138632 62.532276L3.8337202 62.678887L3.7830722 62.840901L3.7654122 63.014847L3.7654122 63.014847"
       style="opacity:1;fill:none;fill-opacity:1;stroke:#000000;stroke-width:0.26458332;stroke-miterlimit:4;stroke-dasharray:none;stroke-opacity:1"
       inkscape:connector-curvature="0" />
    <path
       id="ellipse839"
       d="M56.387615 63.004997L56.404471 63.174167L56.453781 63.335294L56.533656 63.483849L56.642206 63.615306L56.774595 63.723092L56.924204 63.802404L57.086473 63.851366L57.256843 63.868104L57.427213 63.851366L57.589483 63.802404L57.739092 63.723092L57.871481 63.615306L57.980031 63.483849L58.059906 63.335294L58.109215 63.174167L58.126072 63.004997L58.108412 62.831051L58.057763 62.669037L57.977621 62.522426L57.871481 62.394689L57.742837 62.289296L57.595186 62.209718L57.432023 62.159426L57.256843 62.141891L57.081664 62.159426L56.918501 62.209718L56.77085 62.289296L56.642206 62.394689L56.536066 62.522426L56.455924 62.669037L56.405275 62.831051L56.387615 63.004997L56.387615 63.004997"
       style="opacity:1;fill:none;fill-opacity:1;stroke:#000000;stroke-width:0.26458332;stroke-miterlimit:4;stroke-dasharray:none;stroke-opacity:1"
       inkscape:connector-curvature="0" />
    <path
       id="rect841"
       d="M19.00258 33.517536L11.40258 33.517536L11.324586 33.533205L11.26103 33.575986L11.218249 33.639542L11.20258 33.717536L11.20258 34.917536L11.218249 34.99553L11.26103 35.059086L11.324586 35.101867L11.40258 35.117536L19.00258 35.117536L19.080574 35.101867L19.14413 35.059086L19.186911 34.99553L19.20258 34.917536L19.20258 33.717536L19.186911 33.639542L19.14413 33.575986L19.080574 33.533205L19.00258 33.517536L19.00258 33.517536"
       style="opacity:1;fill:none;fill-opacity:1;stroke:#000000;stroke-width:0.26458332;stroke-miterlimit:4;stroke-dasharray:none;stroke-opacity:1"
       inkscape:connector-curvature="0" />
    <path
       id="rect843"
       d="M61.910946 36.15601L60.423644 36.15601L60.423644 42.896911L61.910946 42.896911L61.910946 36.15601"
       style="opacity:1;fill:none;fill-opacity:1;stroke:#000000;stroke-width:0.26458332;stroke-miterlimit:4;stroke-dasharray:none;stroke-opacity:1"
       inkscape:connector-curvature="0" />
    <path
       style="opacity:1;fill:none;fill-opacity:1;stroke:#000000;stroke-width:0.26458332;stroke-miterlimit:4;stroke-dasharray:none;stroke-opacity:1"
       d="M1.5859142 36.07722L0.09861015 36.07722L0.09861015 42.818121L1.5859142 42.818121L1.5859142 36.07722"
       id="path948"
       inkscape:connector-curvature="0" />
  </g>
  <g
     id="g904"
     inkscape:groupmode="layer"
     inkscape:label="B.Cu-disabled"
     transform="translate(0.03368151,-6.2398887)" />
  <g
     id="g906"
     inkscape:groupmode="layer"
     inkscape:label="B.Mask-disabled"
     transform="translate(0.03368151,-6.2398887)" />
  <g
     id="g908"
     inkscape:groupmode="layer"
     inkscape:label="B.Silk"
     style="display:inline"
     transform="translate(0.03368151,-6.2398887)">
    <path
       style="display:inline;fill:#000000;stroke-width:0.09612394"
       d="M 18.369288,33.376783 V 31.891381 C 18.369288,29.547212 18.309038,29.597907 21.173432,29.531822 23.232391,29.484322 23.259641,29.480972 23.513572,29.24345 24.051584,28.740225 24.040598,28.849982 24.040598,23.977982 V 19.471957 L 24.280908,18.880549 24.521218,18.289143 V 13.481035 8.672929 H 21.733624 18.946031 V 13.419619 18.16631 L 19.186342,18.804754 C 19.417701,19.419423 19.49231,19.528179 19.426649,21.698401 L 19.358674,23.945105 C 19.354432,24.085323 19.14635,24.26752 19.14635,24.26752 L 18.840557,24.547453 16.094415,24.6295 C 12.932584,24.68433 12.827742,24.70764 12.500283,25.428898 12.330983,25.801799 12.317548,26.105481 12.315591,29.603915 L 12.313391,33.376782 Z M 12.505874,29.603917 C 12.505972,26.204537 12.522654,25.797746 12.674094,25.494616 12.990774,24.86069 13.187722,24.822114 16.110374,24.82154 18.014915,24.821146 18.887921,24.863409 19.286951,24.440268 19.659499,24.045211 19.618897,23.244476 19.618897,21.624596 19.618897,19.457043 19.610597,19.357865 19.378587,18.765942 L 19.138276,18.152744 V 13.508961 8.8651738 H 21.733624 24.32897 V 13.524993 18.18481 L 24.088663,18.823254 23.848352,19.4617 V 23.923105 C 23.848352,28.821735 23.839752,28.901568 23.283954,29.189006 23.049492,29.310252 22.635541,29.339577 21.158565,29.339577 19.126,29.339577 18.872673,29.392727 18.436891,29.910625 18.177587,30.218789 18.177038,30.222778 18.177038,31.79811 V 33.376783 H 12.505725 L 12.505918,29.603917 Z"
       id="path882"
       inkscape:connector-curvature="0"
       sodipodi:nodetypes="csccsccccccccccssccccccccccssccccccccccscscscccc" />
  </g>
  <g
     id="g910"
     inkscape:groupmode="layer"
     inkscape:label="F.Cu"
     style="display:inline"
     transform="translate(0.03368151,-6.2398887)" />
  <g
     id="g912"
     inkscape:groupmode="layer"
     inkscape:label="F.Mask-disabled"
     transform="translate(0.03368151,-6.2398887)" />
  <g
     id="g914"
     inkscape:groupmode="layer"
     inkscape:label="F.Silk"
     style="display:inline"
     transform="translate(0.03368151,-6.2398887)">
    <rect
       transform="scale(-1,1)"
       style="opacity:1;fill:none;fill-opacity:1;stroke:#000000;stroke-width:0.13591792;stroke-miterlimit:4;stroke-dasharray:none;stroke-opacity:1"
       id="rect950"
       width="2.1872478"
       height="7.2920632"
       x="-22.776287"
       y="10.041498" />
    <path
       inkscape:connector-curvature="0"
       id="path831"
       d="M 46.794274,69.854788 C 46.925508,69.762868 47.023638,69.745226 47.061644,69.806728 47.230612,70.080121 47.958558,69.794298 48.648326,69.183718 48.780497,69.06672 49.299567,68.809229 49.801815,68.611512 50.304061,68.413795 50.769061,68.207468 50.835147,68.153009 50.919317,68.083639 50.955302,67.702118 50.955302,66.879105 50.955302,65.880461 50.980532,65.682091 51.123518,65.556678 51.241094,65.453549 52.274329,65.274982 54.555639,64.963529 56.659164,64.676349 57.940683,64.458658 58.160287,64.351218 58.362528,64.252269 58.56821,64.047228 58.666303,63.846776 58.815955,63.540965 59.012972,62.415438 59.175061,60.940322 L 59.235794,60.387607 H 59.666795 C 60.06572,60.387607 60.14986,60.339317 60.79736,59.738773 61.327199,59.247352 61.51221,59.008312 61.559934,58.753503 61.59459,58.568465 61.613231,53.362078 61.624003,50.666271 61.644342,45.576017 61.634056,39.95597 61.62506,35.395386 V 34.818641 H 40.477793 L 5.8250222,34.81864 H 0.39401715 C 0.39401715,34.81864 0.39401715,35.203136 0.39401715,35.395384 0.39401715,40.594946 0.39387815,47.378535 0.39401715,50.994071 V 59.09509 L 1.0452681,59.741348 C 1.6426972,60.334204 1.7300732,60.387606 2.1026342,60.387606 2.3259962,60.387606 2.5095401,60.420046 2.5105102,60.459696 2.5229701,60.96936 2.8569062,62.722526 3.0607912,63.348588 3.3040222,64.095467 3.3526362,64.170776 3.7092652,64.353139 4.0009042,64.502272 5.1247911,64.697027 8.3242452,65.15285 10.650447,65.484257 13.263388,65.825614 14.130789,65.911415 L 15.707876,66.067421 17.139083,67.07247 18.570291,68.07752 H 30.943715 43.317055 L 44.274689,69.038761 45.232322,70 H 45.909634 C 46.358254,70 46.656953,69.95097 46.794274,69.854783 Z M 44.274689,68.846516 43.317055,67.885278 H 30.975915 18.634775 L 17.276451,66.940487 C 16.529372,66.420854 15.871368,65.968633 15.814217,65.935555 15.757067,65.902505 15.021722,65.806796 14.180113,65.722935 11.234178,65.429392 4.0992482,64.370528 3.7744701,64.178678 3.3735642,63.941859 3.0466932,62.970104 2.8339612,61.382632 L 2.6748562,60.195362 H 2.2339662 C 1.8221042,60.195362 1.7533582,60.155992 1.1897192,59.597366 L 0.58635915,58.999364 C 0.58635915,58.999364 0.58635915,53.630595 0.58635915,50.946211 0.58635915,45.794644 0.58635915,40.643076 0.58635915,35.491509 0.58635915,35.331302 0.58635915,35.010887 0.58635915,35.010887 14.305168,35.040977 28.761906,35.040234 40.357638,35.013787 L 61.432812,35.010887 C 61.432812,35.010887 61.432812,35.331302 61.432812,35.491509 61.432812,40.550031 61.453054,45.608593 61.432812,50.667074 61.422073,53.350599 61.403817,58.565461 61.36838,58.717456 61.330028,58.881956 61.055141,59.226411 60.689237,59.568479 60.137483,60.084289 60.023484,60.148282 59.576151,60.193284 L 59.077775,60.243424 59.009437,60.772107 C 58.748377,62.791742 58.629587,63.517805 58.524735,63.734694 58.288856,64.22261 57.993434,64.298948 54.508446,64.772488 51.730371,65.149973 51.161145,65.253628 50.982098,65.414626 50.786161,65.590814 50.766381,65.706213 50.741789,66.816576 L 50.714989,68.02654 49.719453,68.435582 C 49.171909,68.660557 48.572103,68.977921 48.386552,69.14084 47.875075,69.589923 47.450953,69.766293 47.179709,69.642707 47.012505,69.566527 46.895946,69.573647 46.720576,69.670757 46.591303,69.742357 46.203561,69.802463 45.858925,69.804337 L 45.232318,69.807537 Z"
       style="display:inline;fill:#000000;stroke-width:0.09612394"
       sodipodi:nodetypes="cccccscscsccsccaccazcacccscsccccccccccsccccccccscccsccaacccaaccccscscccccccccc" />
  </g>
  <g
     id="g916"
     inkscape:groupmode="layer"
     inkscape:label="Drill"
     transform="translate(0.03368151,-6.2398887)" />
</svg>
