<?xml version="1.0" encoding="UTF-8" standalone="no"?>
<!-- Created with Inkscape (http://www.inkscape.org/) -->

<svg
   xmlns:dc="http://purl.org/dc/elements/1.1/"
   xmlns:cc="http://creativecommons.org/ns#"
   xmlns:rdf="http://www.w3.org/1999/02/22-rdf-syntax-ns#"
   xmlns:svg="http://www.w3.org/2000/svg"
   xmlns="http://www.w3.org/2000/svg"
   xmlns:sodipodi="http://sodipodi.sourceforge.net/DTD/sodipodi-0.dtd"
   xmlns:inkscape="http://www.inkscape.org/namespaces/inkscape"
   sodipodi:docname="drawing.svg"
   inkscape:version="0.92.3 (2405546, 2018-03-11)"
   width="65.552521mm"
   height="63.760113mm"
   viewBox="0 0 65.552521 63.760113"
   version="1.1"
   id="svg8">
  <sodipodi:namedview
     fit-margin-bottom="0"
     fit-margin-right="0"
     fit-margin-left="0"
     fit-margin-top="0"
     borderlayer="true"
     id="base"
     pagecolor="#ffffff"
     bordercolor="#666666"
     borderopacity="1.0"
     inkscape:pageopacity="0.0"
     inkscape:pageshadow="2"
     inkscape:zoom="2.7523347"
     inkscape:cx="92.559118"
     inkscape:cy="86.27591"
     inkscape:document-units="mm"
     inkscape:current-layer="g912"
     showgrid="true"
     inkscape:window-width="1920"
     inkscape:window-height="1137"
     inkscape:window-x="-8"
     inkscape:window-y="-8"
     inkscape:window-maximized="1">
    <inkscape:grid
       originy="1.4305115e-006"
       originx="0.033681511"
       enabled="false"
       spacingx="2.54"
       spacingy="2.54"
       empspacing="1"
       type="xygrid"
       units="mm"
       id="grid894" />
  </sodipodi:namedview>
  <defs
     id="defs2" />
  <metadata
     id="metadata5">
    <rdf:RDF>
      <cc:Work
         rdf:about="">
        <dc:format>image/svg+xml</dc:format>
        <dc:type
           rdf:resource="http://purl.org/dc/dcmitype/StillImage" />
        <dc:title />
      </cc:Work>
    </rdf:RDF>
  </metadata>
  <g
     transform="translate(0.03368151,-6.2398887)"
     inkscape:label="[fixed] BG"
     inkscape:groupmode="layer"
     sodipodi:insensitive="true"
     id="g900">
    <rect
       x="0"
       y="6.2398887"
       width="65.518837"
       height="63.760113"
       style="fill:#ffffff;fill-opacity:1;stroke:none;stroke-width:0.60901862"
       id="rect898" />
  </g>
  <g
     transform="translate(0.03368151,-6.2398887)"
     style="display:inline"
     inkscape:label="Edge.Cuts"
     inkscape:groupmode="layer"
     id="g902">
    <path
       inkscape:connector-curvature="0"
       style="opacity:1;fill:none;fill-opacity:1;stroke:#000000;stroke-width:0.26894894;stroke-miterlimit:4;stroke-dasharray:none;stroke-opacity:1"
       d="M3.8280972 62.899592L3.8460482 63.076408L3.8975322 63.241095L3.9789972 63.390125L4.0868885 63.51997L4.2176541 63.627102L4.3677413 63.707992L4.5335964 63.759112L4.711667 63.776932L4.8897374 63.759112L5.0555927 63.707992L5.2056799 63.627102L5.3364455 63.51997L5.4443368 63.390125L5.5258018 63.241095L5.5772858 63.076408L5.5952368 62.899592L5.5772858 62.722776L5.5258018 62.558089L5.4443368 62.409059L5.3364455 62.279214L5.2056799 62.172082L5.0555927 62.091192L4.8897374 62.040072L4.711667 62.022252L4.5335964 62.040072L4.3677413 62.091192L4.2176541 62.172082L4.0868885 62.279214L3.9789972 62.409059L3.8975322 62.558089L3.8460482 62.722776L3.8280972 62.899592L3.8280972 62.899592"
       id="path837" />
    <path
       inkscape:connector-curvature="0"
       style="opacity:1;fill:none;fill-opacity:1;stroke:#000000;stroke-width:0.26894894;stroke-miterlimit:4;stroke-dasharray:none;stroke-opacity:1"
       d="M57.318566 62.889579L57.335706 63.061541L57.385826 63.225326L57.467016 63.376333L57.577357 63.509959L57.711931 63.619523L57.864008 63.700143L58.028955 63.749913L58.202136 63.766923L58.375317 63.749913L58.540264 63.700143L58.692342 63.619523L58.826915 63.509959L58.937256 63.376333L59.018446 63.225326L59.068566 63.061541L59.085696 62.889579L59.067746 62.712763L59.016266 62.548076L58.934796 62.399046L58.826905 62.269201L58.696139 62.162069L58.546051 62.081179L58.380196 62.030059L58.202126 62.012229L58.024056 62.030059L57.858201 62.081179L57.708114 62.162069L57.577347 62.269201L57.469456 62.399046L57.387986 62.548076L57.336506 62.712763L57.318556 62.889579L57.318556 62.889579"
       id="ellipse839" />
    <path
       inkscape:connector-curvature="0"
       style="opacity:1;fill:none;fill-opacity:1;stroke:#000000;stroke-width:0.26894894;stroke-miterlimit:4;stroke-dasharray:none;stroke-opacity:1"
       d="M19.316678 32.915575L11.591278 32.915575L11.511998 32.931505L11.447398 32.974995L11.403908 33.039595L11.387978 33.118875L11.387978 34.338675L11.403908 34.417955L11.447398 34.482565L11.511998 34.526055L11.591278 34.541985L19.316678 34.541985L19.395958 34.526055L19.460568 34.482565L19.504058 34.417955L19.519988 34.338675L19.519988 33.118875L19.504058 33.039595L19.460568 32.974995L19.395958 32.931505L19.316678 32.915575L19.316678 32.915575"
       id="rect841" />
    <path
       inkscape:connector-curvature="0"
       style="opacity:1;fill:none;fill-opacity:1;stroke:#000000;stroke-width:0.26894894;stroke-miterlimit:4;stroke-dasharray:none;stroke-opacity:1"
       d="M62.933032 35.597584L61.42119 35.597584L61.42119 42.44971L62.933032 42.44971L62.933032 35.597584"
       id="rect843" />
    <path
       inkscape:connector-curvature="0"
       id="path948"
       d="M1.6126375 35.517494L0.10079296 35.517494L0.10079296 42.36962L1.6126375 42.36962L1.6126375 35.517494"
       style="opacity:1;fill:none;fill-opacity:1;stroke:#000000;stroke-width:0.26894894;stroke-miterlimit:4;stroke-dasharray:none;stroke-opacity:1" />
  </g>
  <g
     transform="translate(0.03368151,-6.2398887)"
     inkscape:label="B.Cu-disabled"
     inkscape:groupmode="layer"
     id="g904" />
  <g
     transform="translate(0.03368151,-6.2398887)"
     inkscape:label="B.Mask-disabled"
     inkscape:groupmode="layer"
     id="g906" />
  <g
     transform="translate(0.03368151,-6.2398887)"
     style="display:inline"
     inkscape:label="B.Silk"
     inkscape:groupmode="layer"
     id="g908">
    <path
       sodipodi:nodetypes="csccsccccccccccssccccccccccssccccccccccscscscccc"
       inkscape:connector-curvature="0"
       id="path882"
       d="m 18.672937,32.7725 v -1.509911 c 0,-2.382848 -0.06124,-2.331317 2.850412,-2.398492 2.092932,-0.04828 2.120632,-0.05169 2.378753,-0.29313 0.546889,-0.511528 0.535722,-0.39996 0.535722,-5.352348 v -4.580375 l 0.244275,-0.601166 0.244275,-0.601164 V 12.548472 7.6610323 h -2.833589 -2.833589 v 4.8250107 4.825011 l 0.244276,0.648978 c 0.235177,0.624811 0.311017,0.735362 0.244272,2.941393 l -0.0691,2.283774 c -0.0043,0.142532 -0.215827,0.327735 -0.215827,0.327735 l -0.310839,0.284552 -2.791453,0.0834 c -3.214002,0.05573 -3.320574,0.07943 -3.653436,0.812588 -0.172093,0.379054 -0.18575,0.687746 -0.187739,4.243905 l -0.0022,3.835119 z m -5.96016,-3.835118 c 9.9e-5,-3.45547 0.01706,-3.868973 0.170995,-4.177105 0.321906,-0.644386 0.522103,-0.683598 3.492979,-0.684182 1.935966,-4e-4 2.823376,0.04256 3.22899,-0.387563 0.378695,-0.401575 0.337424,-1.215522 0.337424,-2.86213 0,-2.203318 -0.0084,-2.304132 -0.244276,-2.905822 L 19.454613,17.297264 V 12.576859 7.8564492 h 2.638172 2.638169 v 4.7367058 4.736704 l -0.244272,0.648979 -0.244276,0.64898 v 4.535018 c 0,4.979458 -0.0087,5.060608 -0.573711,5.352789 -0.238331,0.123246 -0.659112,0.153055 -2.160458,0.153055 -2.066102,0 -2.323609,0.05403 -2.766582,0.58047 -0.263582,0.313249 -0.26414,0.317304 -0.26414,1.918629 V 32.7725 h -5.76489 l 1.96e-4,-3.835118 z"
       style="display:inline;fill:#000000;stroke-width:0.09770998" />
  </g>
  <g
     transform="translate(0.03368151,-6.2398887)"
     style="display:inline"
     inkscape:label="F.Cu"
     inkscape:groupmode="layer"
     id="g910" />
  <g
     transform="translate(0.03368151,-6.2398887)"
     inkscape:label="Dwgs.User"
     inkscape:groupmode="layer"
     id="g912">
    <rect
       y="9.0521832"
       x="-23.152651"
       height="7.4123821"
       width="2.2233374"
       id="rect950"
       style="display:inline;opacity:1;fill:none;fill-opacity:1;stroke:#000000;stroke-width:0.13816056;stroke-miterlimit:4;stroke-dasharray:none;stroke-opacity:1"
       transform="scale(-1,1)" />
  </g>
  <g
     transform="translate(0.03368151,-6.2398887)"
     style="display:inline"
     inkscape:label="F.Silk"
     inkscape:groupmode="layer"
     id="g914">
    <path
       sodipodi:nodetypes="cccccscscsccsccaccazcacccscsccccccccccsccccccccscccsccaacccaaccccscscccccccccc"
       style="display:inline;fill:#000000;stroke-width:0.09770998"
       d="m 47.566935,69.852392 c 0.1334,-0.09344 0.233149,-0.11137 0.271782,-0.04885 0.171756,0.277904 0.911713,-0.01264 1.612862,-0.63329 0.134352,-0.118928 0.661987,-0.380668 1.172522,-0.581647 0.510533,-0.200979 0.983205,-0.410711 1.050382,-0.466068 0.08556,-0.07052 0.122137,-0.458331 0.122137,-1.294924 0,-1.015121 0.02565,-1.216764 0.170992,-1.344247 0.119516,-0.10483 1.169799,-0.286344 3.488751,-0.602936 2.138233,-0.291918 3.440897,-0.513201 3.664124,-0.622414 0.205578,-0.100582 0.414654,-0.309006 0.514366,-0.512765 0.152121,-0.310857 0.352389,-1.454955 0.517152,-2.954411 l 0.06173,-0.561834 h 0.438113 c 0.405507,0 0.491035,-0.04909 1.149219,-0.65954 0.538582,-0.49953 0.726645,-0.742514 0.775157,-1.001527 0.03523,-0.188091 0.05418,-5.480384 0.06513,-8.220672 0.02067,-5.174243 0.01022,-10.88702 0.0011,-15.522854 V 34.238149 H 41.146232 l -35.2245412,-10e-7 H 0.40107418 c 0,0 0,0.39084 0,0.58626 0,5.285355 -1.413e-4,12.180873 0,15.856065 v 8.234686 L 1.0630708,59.57208 c 0.6072866,0.602638 0.6961044,0.656921 1.0748126,0.656921 0.2270475,0 0.4136199,0.03298 0.414606,0.07328 0.012666,0.518073 0.3521115,2.300167 0.5593606,2.936559 0.2472443,0.759202 0.2966604,0.835754 0.6591738,1.021126 0.2964511,0.151593 1.4388821,0.349562 4.6911272,0.812906 2.364584,0.336875 5.020639,0.683865 5.902352,0.771081 l 1.603109,0.15858 1.454822,1.021633 1.454823,1.021633 h 12.577585 12.5775 L 45.005777,69.022901 45.979211,70 h 0.688488 c 0.456022,0 0.759649,-0.04984 0.899236,-0.147613 z M 45.005777,68.827484 44.032342,67.850385 H 31.487573 18.942805 l -1.380737,-0.96038 c -0.759406,-0.528207 -1.428267,-0.98789 -1.486361,-1.021513 -0.05809,-0.0336 -0.805571,-0.130884 -1.661066,-0.216129 C 11.420098,65.353977 4.1674415,64.277642 3.8373046,64.082626 3.4297838,63.8419 3.0975194,62.854111 2.8812773,61.240445 L 2.7195471,60.033585 H 2.2713824 c -0.4186577,0 -0.488538,-0.04002 -1.0614771,-0.607862 L 0.59658982,58.817854 c 0,0 0,-5.457354 0,-8.186031 0,-5.236567 0,-10.473136 0,-15.709704 0,-0.162851 0,-0.488552 0,-0.488552 13.94516918,0.03059 28.64044318,0.02983 40.42750518,0.0029 l 21.422914,-0.0029 c 0,0 0,0.325701 0,0.488552 0,5.141988 0.02058,10.284016 0,15.425962 -0.01092,2.727803 -0.02947,8.02871 -0.06549,8.183213 -0.03899,0.167214 -0.318407,0.517353 -0.690349,0.865065 -0.560858,0.524321 -0.676738,0.58937 -1.131452,0.635114 l -0.506599,0.05097 -0.06947,0.537407 c -0.265367,2.052959 -0.386117,2.791002 -0.492699,3.011469 -0.239771,0.495967 -0.540068,0.573565 -4.082558,1.054918 -2.823913,0.383714 -3.402531,0.489079 -3.584533,0.652733 -0.19917,0.179095 -0.219276,0.296399 -0.244274,1.425083 l -0.02724,1.229928 -1.011962,0.415791 c -0.556579,0.228687 -1.166282,0.551288 -1.354894,0.716895 -0.519917,0.456493 -0.951037,0.635773 -1.226756,0.510148 -0.169963,-0.07744 -0.288445,-0.0702 -0.466709,0.02851 -0.131406,0.07278 -0.525545,0.13388 -0.875868,0.135785 l -0.636946,0.0033 z"
       id="path831"
       inkscape:connector-curvature="0" />
  </g>
  <g
     transform="translate(0.03368151,-6.2398887)"
     inkscape:label="Drill"
     inkscape:groupmode="layer"
     id="g916" />
</svg>
